<svg width="25" height="25" viewBox="0 0 25 25" fill="none" xmlns="http://www.w3.org/2000/svg">
<path d="M9.37508 13.5416L9.02153 13.1881L9.37508 12.8345L9.72864 13.1881L9.37508 13.5416ZM9.87508 22.9166C9.87508 23.1928 9.65123 23.4166 9.37508 23.4166C9.09894 23.4166 8.87508 23.1928 8.87508 22.9166L9.87508 22.9166ZM3.81319 18.3964L9.02153 13.1881L9.72864 13.8952L4.5203 19.1035L3.81319 18.3964ZM9.72864 13.1881L14.937 18.3964L14.2299 19.1035L9.02153 13.8952L9.72864 13.1881ZM9.87508 13.5416L9.87508 22.9166L8.87508 22.9166L8.87508 13.5416L9.87508 13.5416Z" fill="#2564CF"/>
<path d="M15.6251 11.4584L15.2715 11.8119L15.6251 12.1655L15.9786 11.8119L15.6251 11.4584ZM16.1251 2.08337C16.1251 1.80723 15.9012 1.58337 15.6251 1.58337C15.3489 1.58337 15.1251 1.80723 15.1251 2.08337L16.1251 2.08337ZM10.0632 6.60359L15.2715 11.8119L15.9786 11.1048L10.7703 5.89649L10.0632 6.60359ZM15.9786 11.8119L21.187 6.60359L20.4799 5.89649L15.2715 11.1048L15.9786 11.8119ZM16.1251 11.4584L16.1251 2.08337L15.1251 2.08337L15.1251 11.4584L16.1251 11.4584Z" fill="#2564CF"/>
</svg>
