<svg width="25" height="25" viewBox="0 0 25 25" fill="none" xmlns="http://www.w3.org/2000/svg">
<path d="M5.20837 13.2913C5.20837 11.877 5.20837 11.1698 5.49427 10.5482C5.78017 9.92662 6.31709 9.4664 7.39093 8.54596L8.43259 7.65311C10.3735 5.98943 11.344 5.15759 12.5 5.15759C13.6561 5.15759 14.6265 5.98943 16.5675 7.65311L17.6092 8.54596C18.683 9.4664 19.2199 9.92662 19.5058 10.5482C19.7917 11.1698 19.7917 11.877 19.7917 13.2913V17.7084C19.7917 19.6726 19.7917 20.6547 19.1815 21.2649C18.5713 21.8751 17.5892 21.8751 15.625 21.8751H9.37504C7.41085 21.8751 6.42876 21.8751 5.81857 21.2649C5.20837 20.6547 5.20837 19.6726 5.20837 17.7084V13.2913Z" stroke="#414141"/>
<path d="M15.1042 21.875V16.625C15.1042 16.0727 14.6565 15.625 14.1042 15.625H10.8959C10.3436 15.625 9.89587 16.0727 9.89587 16.625V21.875" stroke="#414141" stroke-linecap="round" stroke-linejoin="round"/>
</svg>
